<?xml version="1.0" encoding="utf-8"?>
<!-- Generator: Adobe Illustrator 16.0.0, SVG Export Plug-In . SVG Version: 6.00 Build 0)  -->
<!DOCTYPE svg PUBLIC "-//W3C//DTD SVG 1.1//EN" "http://www.w3.org/Graphics/SVG/1.1/DTD/svg11.dtd">
<svg version="1.1" id="Layer_1" xmlns="http://www.w3.org/2000/svg" xmlns:xlink="http://www.w3.org/1999/xlink" x="0px" y="0px"
	 width="30px" height="150px" viewBox="0 0 30 150" enable-background="new 0 0 30 150" xml:space="preserve">
<g id="Layer_2">
</g>
<g>
	<polygon fill="#777777" points="18.5,72.85 15,76.35 11.5,72.85 10.1,72.85 15,77.85 19.9,72.85 	"/>
	<polygon fill="#777777" points="11.5,107.85 15,104.35 18.5,107.85 19.9,107.85 15,102.85 10.1,107.85 	"/>
	<polygon fill="#777777" points="19.9,131.149 18.5,131.149 15,134.649 11.5,131.149 10.1,131.149 14.3,135.35 10.1,139.55 
		11.5,139.55 15,136.05 18.5,139.55 19.9,139.55 15.7,135.35 	"/>
	<polygon fill="#777777" points="13.5,11.85 17,15.35 13.5,18.85 13.5,20.25 18.5,15.35 13.5,10.45 	"/>
	<polygon fill="#777777" points="16.5,48.85 13,45.35 16.5,41.85 16.5,40.45 11.5,45.35 16.5,50.25 	"/>
</g>
</svg>
