<?xml version="1.0" encoding="utf-8"?>
<!-- Generator: Adobe Illustrator 16.0.0, SVG Export Plug-In . SVG Version: 6.00 Build 0)  -->
<!DOCTYPE svg PUBLIC "-//W3C//DTD SVG 1.1//EN" "http://www.w3.org/Graphics/SVG/1.1/DTD/svg11.dtd">
<svg version="1.1" id="Layer_1" xmlns="http://www.w3.org/2000/svg" xmlns:xlink="http://www.w3.org/1999/xlink" x="0px" y="0px"
	 width="30px" height="30px" viewBox="0 0 30 30" enable-background="new 0 0 30 30" xml:space="preserve">
<path opacity="0.2" d="M26.47,22.059c0,0.459-0.184,0.9-0.515,1.232l-2.702,2.683c-0.331,0.313-0.79,0.478-1.249,0.478
	c-0.461,0-0.92-0.165-1.25-0.496l-3.787-3.805c-0.331-0.33-0.515-0.791-0.515-1.25c0-0.551,0.22-0.975,0.606-1.342
	c0.606,0.606,1.121,1.323,2.059,1.323c0.975,0,1.765-0.79,1.765-1.765c0-0.938-0.718-1.452-1.323-2.059
	c0.367-0.386,0.79-0.588,1.323-0.588c0.46,0,0.919,0.184,1.25,0.515l3.823,3.823C26.286,21.139,26.47,21.58,26.47,22.059z
	 M13.547,9.099c0,0.551-0.22,0.974-0.606,1.342c-0.605-0.606-1.12-1.324-2.058-1.324c-0.975,0-1.766,0.791-1.766,1.765
	c0,0.937,0.717,1.452,1.324,2.058c-0.368,0.386-0.791,0.57-1.324,0.57c-0.459,0-0.919-0.166-1.25-0.497L4.044,9.191
	C3.713,8.86,3.529,8.418,3.529,7.941c0-0.46,0.184-0.901,0.515-1.232l2.702-2.684c0.331-0.313,0.79-0.496,1.25-0.496
	s0.919,0.184,1.25,0.515l3.786,3.805C13.363,8.18,13.547,8.639,13.547,9.099z M30,22.059c0-1.416-0.533-2.739-1.545-3.75
	l-3.823-3.824c-0.993-0.993-2.353-1.544-3.75-1.544c-1.452,0-2.813,0.588-3.823,1.618L15.44,12.94
	c1.03-1.011,1.618-2.389,1.618-3.841c0-1.397-0.533-2.739-1.525-3.732l-3.787-3.805C10.754,0.551,9.412,0,7.996,0
	C6.6,0,5.257,0.533,4.265,1.525L1.563,4.209C0.57,5.184,0,6.543,0,7.941c0,1.416,0.533,2.739,1.544,3.75l3.823,3.824
	c0.993,0.992,2.354,1.544,3.75,1.544c1.453,0,2.813-0.588,3.823-1.618l1.618,1.618c-1.029,1.011-1.618,2.39-1.618,3.842
	c0,1.396,0.533,2.739,1.526,3.731l3.786,3.806C19.246,29.448,20.588,30,22.004,30c1.396,0,2.738-0.533,3.73-1.525l2.702-2.685
	C29.43,24.815,30,23.455,30,22.059z"/>
</svg>
