<?xml version="1.0" encoding="utf-8"?>
<!-- Generator: Adobe Illustrator 16.0.0, SVG Export Plug-In . SVG Version: 6.00 Build 0)  -->
<!DOCTYPE svg PUBLIC "-//W3C//DTD SVG 1.1//EN" "http://www.w3.org/Graphics/SVG/1.1/DTD/svg11.dtd">
<svg version="1.1" id="Layer_1" xmlns="http://www.w3.org/2000/svg" xmlns:xlink="http://www.w3.org/1999/xlink" x="0px" y="0px"
	 width="30px" height="24px" viewBox="0 0 30 24" enable-background="new 0 0 30 24" xml:space="preserve">
<g>
	<path opacity="0.2" d="M3,6.189c-2,2.617-3,5.449-3,8.495c0,2.809,0.72,5.064,2.161,6.766C3.602,23.148,5.245,24,7.092,24
		c1.511,0,2.791-0.518,3.84-1.553c1.048-1.035,1.573-2.277,1.573-3.727c0-1.508-0.405-2.691-1.217-3.549
		c-0.811-0.857-1.902-1.287-3.273-1.287c-0.559,0-1.091,0.133-1.594,0.4c-1.035,0.592-1.707,0.887-2.014,0.887
		c-0.196,0-0.392-0.133-0.587-0.4c-0.252-0.383-0.378-0.855-0.378-1.418c0-2.366,0.791-4.606,2.371-6.721
		c1.581-2.114,3.812-3.674,6.693-4.681V0C8.169,1.509,5.001,3.571,3,6.189z"/>
	<path opacity="0.2" d="M20.495,6.189c-2,2.617-3.001,5.449-3.001,8.495c0,2.809,0.721,5.064,2.161,6.766
		C21.097,23.148,22.739,24,24.587,24c1.51,0,2.79-0.518,3.84-1.553C29.476,21.412,30,20.17,30,18.721
		c0-1.508-0.405-2.691-1.218-3.549c-0.811-0.857-1.901-1.287-3.273-1.287c-0.559,0-1.09,0.133-1.594,0.4
		c-1.035,0.592-1.707,0.887-2.014,0.887c-0.196,0-0.393-0.133-0.588-0.4c-0.252-0.383-0.378-0.855-0.378-1.418
		c0-2.366,0.791-4.606,2.371-6.721C24.888,4.519,27.118,2.958,30,1.952V0C25.663,1.509,22.495,3.571,20.495,6.189z"/>
</g>
</svg>
